<?xml version="1.0" encoding="UTF-8" standalone="no"?>
<!-- Created with Inkscape (http://www.inkscape.org/) -->

<svg
   sodipodi:docname="DRAWIN.svg"
   id="svg5"
   version="1.1"
   viewBox="0 0 210 297"
   height="297mm"
   width="210mm"
   inkscape:version="1.2.2 (1:1.2.2+202305151914+b0a8486541)"
   inkscape:export-filename="DRAWIN.png"
   inkscape:export-xdpi="96"
   inkscape:export-ydpi="96"
   xmlns:inkscape="http://www.inkscape.org/namespaces/inkscape"
   xmlns:sodipodi="http://sodipodi.sourceforge.net/DTD/sodipodi-0.dtd"
   xmlns="http://www.w3.org/2000/svg"
   xmlns:svg="http://www.w3.org/2000/svg">
  <sodipodi:namedview
     id="namedview7"
     pagecolor="#ffffff"
     bordercolor="#666666"
     borderopacity="1.0"
     inkscape:showpageshadow="2"
     inkscape:pageopacity="0.0"
     inkscape:pagecheckerboard="0"
     inkscape:deskcolor="#d1d1d1"
     inkscape:document-units="mm"
     showgrid="false"
     inkscape:zoom="0.47948368"
     inkscape:cx="585.00427"
     inkscape:cy="581.87591"
     inkscape:window-width="1366"
     inkscape:window-height="688"
     inkscape:window-x="0"
     inkscape:window-y="0"
     inkscape:window-maximized="1"
     inkscape:current-layer="layer1" />
  <defs
     id="defs2">
    <inkscape:path-effect
       effect="slice"
       start_point="100.13632,208.7915"
       end_point="78.846964,208.71382"
       center_point="89.491642,208.75266"
       id="path-effect5194"
       is_visible="true"
       lpeversion="1.2"
       lpesatellites="#g5202"
       allow_transforms="true" />
    <inkscape:path-effect
       effect="slice"
       start_point="193.29688,124.83896"
       end_point="193.29688,164.46296"
       center_point="193.29688,144.65096"
       id="path-effect4529"
       is_visible="true"
       lpeversion="1.2"
       lpesatellites=""
       allow_transforms="true" />
    <inkscape:perspective
       sodipodi:type="inkscape:persp3d"
       inkscape:vp_x="0 : 87.000012 : 1"
       inkscape:vp_y="0 : 1000.0001 : 0"
       inkscape:vp_z="593.99997 : 87.000012 : 1"
       inkscape:persp3d-origin="296.99998 : 17.000002 : 1"
       id="perspective2110" />
  </defs>
  <g
     inkscape:label="Layer 1"
     inkscape:groupmode="layer"
     id="layer1">
    <g
       id="g5279"
       transform="matrix(1.6624116,0,0,1.6624116,-92.029032,-133.40587)">
      <rect
         style="opacity:1;fill:#12443a;fill-opacity:1;stroke:#000000;stroke-width:0.3;stroke-dasharray:none;stroke-opacity:1"
         id="rect234"
         width="99.054749"
         height="92.026001"
         x="71.43084"
         y="104.16504" />
      <g
         aria-label="THINK OUTSIDE THE"
         id="text1884"
         style="font-size:31.75px;line-height:1;font-family:'League Gothic';-inkscape-font-specification:'League Gothic, Normal';font-variant-ligatures:none;fill:#e3dbde;stroke-width:0.64965"
         transform="matrix(-1,0,0,1,241.94453,0.80151797)">
        <path
           d="m 73.584359,109.03451 v -3.52425 h 9.906 v 3.52425 h -3.2385 v 19.812 h -3.429 v -19.812 z"
           id="path5156" />
        <path
           d="m 90.919858,118.68651 h -2.667 v 10.16 h -3.429 v -23.33625 h 3.429 v 9.652 h 2.667 v -9.652 h 3.429 v 23.33625 h -3.429 z"
           id="path5158" />
        <path
           d="m 96.888832,105.51026 h 3.428998 v 23.33625 h -3.428998 z"
           id="path5160" />
        <path
           d="m 106.47732,116.68626 -0.28575,-1.0795 h -0.1905 v 13.23975 h -3.14325 v -23.33625 h 3.048 l 3.33375,12.16025 0.28575,1.0795 h 0.1905 v -13.23975 h 3.14325 v 23.33625 h -3.048 z"
           id="path5162" />
        <path
           d="m 118.82803,105.51026 v 8.15975 h 0.127 l 0.15875,-0.381 2.8575,-7.77875 h 3.33375 l -3.14325,7.6835 3.556,15.65275 h -3.33375 l -2.38125,-10.16 -0.0953,-0.47625 h -0.0952 l -0.1905,0.47625 -0.79375,1.905 v 8.255 h -3.429 v -23.33625 z"
           id="path5164" />
        <path
           d="m 83.712609,155.80226 c -0.03175,0.9525 -0.22225,1.80975 -0.5715,2.54 -0.28575,0.635 -0.73025,1.23825 -1.36525,1.7145 -0.635,0.508 -1.49225,0.79375 -2.63525,0.79375 -1.143,0 -2.032,-0.28575 -2.667,-0.79375 -0.635,-0.47625 -1.04775,-1.0795 -1.3335,-1.7145 -0.34925,-0.73025 -0.53975,-1.5875 -0.5715,-2.54 v -13.74775 c 0.03175,-0.92075 0.22225,-1.778 0.5715,-2.50825 0.28575,-0.635 0.6985,-1.27 1.3335,-1.74625 0.635,-0.47625 1.524,-0.79375 2.667,-0.79375 1.143,0 2.00025,0.3175 2.63525,0.79375 0.635,0.47625 1.0795,1.11125 1.36525,1.74625 0.34925,0.73025 0.53975,1.5875 0.5715,2.50825 z m -3.429,-13.74775 c 0,-0.635 -0.127,-1.0795 -0.4445,-1.4605 -0.15875,-0.15875 -0.41275,-0.254 -0.6985,-0.254 -0.60325,0 -0.889,0.4445 -1.016,0.85725 -0.09525,0.254 -0.127,0.53975 -0.127,0.85725 v 13.74775 c 0,0.66675 0.15875,1.11125 0.47625,1.4605 0.15875,0.15875 0.381,0.254 0.66675,0.254 0.60325,0 0.889,-0.381 1.016,-0.85725 0.09525,-0.22225 0.127,-0.508 0.127,-0.85725 z"
           id="path5166" />
        <path
           d="m 95.142552,137.26026 v 18.542 c -0.03175,0.9525 -0.22225,1.80975 -0.5715,2.54 -0.28575,0.635 -0.73025,1.23825 -1.36525,1.7145 -0.635,0.508 -1.49225,0.79375 -2.63525,0.79375 -1.143,0 -2.032,-0.28575 -2.667,-0.79375 -0.635,-0.47625 -1.04775,-1.0795 -1.3335,-1.7145 -0.34925,-0.73025 -0.53975,-1.5875 -0.5715,-2.54 v -18.542 h 3.429 v 18.542 c 0,0.66675 0.15875,1.11125 0.47625,1.4605 0.15875,0.15875 0.381,0.254 0.66675,0.254 0.60325,0 0.889,-0.381 1.016,-0.85725 0.09525,-0.22225 0.127,-0.508 0.127,-0.85725 v -18.542 z"
           id="path5168" />
        <path
           d="m 96.444277,140.78451 v -3.52425 h 9.906003 v 3.52425 h -3.2385 v 19.812 h -3.429003 v -19.812 z"
           id="path5170" />
        <path
           d="m 113.36703,143.51501 c 0,-0.762 -0.0318,-1.61925 -0.254,-2.286 -0.22225,-0.635 -0.5715,-1.0795 -1.11125,-1.0795 -0.889,0.0318 -1.17475,0.9525 -1.17475,2.31775 0,0.79375 0.34925,1.61925 0.85725,2.50825 0.508,0.889 1.17475,1.80975 1.8415,2.794 0.79375,1.17475 1.5875,2.38125 2.19075,3.556 0.60325,1.17475 1.016,2.38125 1.016,3.65125 0,1.55575 -0.254,3.01625 -0.98425,4.09575 -0.73025,1.0795 -1.905,1.778 -3.77825,1.778 -2.19075,0 -3.429,-0.8255 -4.1275,-2.0955 -0.6985,-1.27 -0.85725,-2.95275 -0.85725,-4.699 l 3.3655,-0.3175 c 0,0.98425 0.0318,1.9685 0.28575,2.69875 0.22225,0.762 0.60325,1.27 1.3335,1.27 1.016,0 1.397,-1.0795 1.397,-2.57175 0,-0.762 -0.381,-1.651 -0.889,-2.57175 -0.28575,-0.4445 -0.5715,-0.92075 -0.889,-1.397 -0.66675,-0.9525 -1.397,-2.032 -2.159,-3.20675 -0.762,-1.17475 -1.3335,-2.38125 -1.68275,-3.6195 -0.1905,-0.60325 -0.28575,-1.23825 -0.28575,-1.87325 0,-1.27 0.28575,-2.63525 1.016,-3.683 0.73025,-1.016 1.8415,-1.74625 3.46075,-1.778 2.06375,-0.0317 3.27025,0.8255 3.937,2.06375 0.66675,1.27 0.85725,2.82575 0.85725,4.1275 z"
           id="path5172" />
        <path
           d="m 118.57398,137.26026 h 3.429 v 23.33625 h -3.429 z"
           id="path5174" />
        <path
           d="m 124.54297,160.59651 v -23.33625 h 2.69875 c 3.175,0 4.8895,0.635 5.81025,2.413 0.889,1.778 1.016,4.699 1.016,9.271 0,4.572 -0.127,7.46125 -1.016,9.23925 -0.92075,1.778 -2.63525,2.413 -5.81025,2.413 z m 3.429,-3.429 c 1.17475,0 1.8415,-0.127 2.19075,-1.27 0.15875,-0.53975 0.28575,-1.36525 0.3175,-2.4765 0.0317,-1.11125 0.0317,-2.6035 0.0317,-4.5085 0,-1.905 0,-3.39725 -0.0317,-4.5085 -0.0318,-1.0795 -0.15875,-1.905 -0.3175,-2.4765 -0.34925,-1.11125 -1.016,-1.23825 -2.19075,-1.23825 z"
           id="path5176" />
        <path
           d="m 136.35396,137.26026 h 7.84225 v 3.52425 h -4.41325 v 6.12775 h 3.175 v 3.7465 h -3.175 v 6.4135 h 4.41325 v 3.52425 h -7.84225 z"
           id="path5178" />
        <path
           d="m 73.584359,172.53451 v -3.52425 h 9.906 v 3.52425 h -3.2385 v 19.812 h -3.429 v -19.812 z"
           id="path5180" />
        <path
           d="m 90.919858,182.18651 h -2.667 v 10.16 h -3.429 v -23.33625 h 3.429 v 9.652 h 2.667 v -9.652 h 3.429 v 23.33625 h -3.429 z"
           id="path5182" />
        <path
           d="m 96.888832,169.01026 h 7.842248 v 3.52425 h -4.41325 v 6.12775 h 3.175 v 3.7465 h -3.175 v 6.4135 h 4.41325 v 3.52425 h -7.842248 z"
           id="path5184" />
      </g>
      <g
         aria-label="BOX"
         id="text1942"
         style="font-size:25.4px;line-height:0.8;font-family:'League Gothic';-inkscape-font-specification:'League Gothic, Normal';font-variant-ligatures:none;fill:#134238;stroke-width:0.264583"
         inkscape:path-effect="#path-effect5194"
         class="UnoptimicedTransforms">
        <path
           d="m 82.538919,208.72729 c -0.192774,-0.20794 -0.402691,-0.37296 -0.632669,-0.50073 0.635,-0.5842 1.066303,-1.09157 1.345703,-1.70117 0.2794,-0.6096 0.355469,-1.27116 0.355469,-2.16016 0,-1.8542 -0.431331,-3.07197 -1.269531,-3.85937 -0.8382,-0.7874 -2.108775,-1.0918 -3.734375,-1.0918 h -2.41211 v 9.29007 z m -3.605325,-6.59643 c 0.2286,0 0.76155,-0.0255 1.21875,0.2793 0.4572,0.3048 0.814453,0.91553 0.814453,2.21093 0,1.2954 -0.357253,1.90419 -0.814453,2.20899 -0.4572,0.3048 -0.99015,0.2793 -1.21875,0.2793 z"
           id="path5187"
           inkscape:original-d="m 76.190637,218.08214 v -18.669 h 2.413 c 1.6256,0 2.8956,0.3048 3.7338,1.0922 0.8382,0.7874 1.27,2.0066 1.27,3.8608 0,0.889 -0.0762,1.5494 -0.3556,2.159 -0.2794,0.6096 -0.7112,1.1176 -1.3462,1.7018 0.6858,0.381 1.1938,1.0922 1.6002,2.286 0.2032,0.5842 0.3048,1.3462 0.3048,2.286 0,1.397 -0.254,2.6416 -0.889,3.6068 -0.635,0.9652 -1.7272,1.6002 -3.3528,1.6764 z m 2.7432,-10.9728 c 0.2286,0 0.762,0.0254 1.2192,-0.2794 0.4572,-0.3048 0.8128,-0.9144 0.8128,-2.2098 0,-1.2954 -0.3556,-1.905 -0.8128,-2.2098 -0.4572,-0.3048 -0.9906,-0.2794 -1.2192,-0.2794 z m 0,8.255 c 0.2286,0 0.762,0.0508 1.2192,-0.2794 0.4572,-0.3302 0.8128,-1.0668 0.8128,-2.5908 0,-1.524 -0.3556,-2.2606 -0.8128,-2.5908 -0.4572,-0.3302 -0.9906,-0.2794 -1.2192,-0.2794 z" />
        <path
           d="m 92.574219,208.76391 v -5.51586 c -0.0254,-0.7366 -0.177632,-1.42166 -0.457031,-2.00586 -0.2286,-0.508 -0.585751,-1.01549 -1.09375,-1.39649 -0.508001,-0.381 -1.193022,-0.63672 -2.107422,-0.63672 -0.9144,0 -1.624813,0.25572 -2.132813,0.63672 -0.507999,0.381 -0.839759,0.88849 -1.068359,1.39649 -0.2794,0.5842 -0.431631,1.26926 -0.457032,2.00586 v 5.48916 z m -4.572266,-0.0167 v -5.49917 c 0,-0.254 0.02536,-0.48235 0.101563,-0.68555 0.1016,-0.3302 0.3299,-0.68555 0.8125,-0.68555 0.2286,0 0.431593,0.0761 0.558593,0.20313 0.254,0.3048 0.355469,0.65997 0.355469,1.16797 v 5.50584 z"
           id="path5189"
           inkscape:original-d="m 92.573596,214.24674 c -0.0254,0.762 -0.1778,1.4478 -0.4572,2.032 -0.2286,0.508 -0.5842,0.9906 -1.0922,1.3716 -0.508,0.4064 -1.1938,0.635 -2.1082,0.635 -0.9144,0 -1.6256,-0.2286 -2.1336,-0.635 -0.507999,-0.381 -0.838199,-0.8636 -1.066799,-1.3716 -0.2794,-0.5842 -0.4318,-1.27 -0.4572,-2.032 v -10.9982 c 0.0254,-0.7366 0.1778,-1.4224 0.4572,-2.0066 0.2286,-0.508 0.5588,-1.016 1.066799,-1.397 0.508,-0.381 1.2192,-0.635 2.1336,-0.635 0.9144,0 1.6002,0.254 2.1082,0.635 0.508,0.381 0.8636,0.889 1.0922,1.397 0.2794,0.5842 0.4318,1.27 0.4572,2.0066 z m -2.7432,-10.9982 c 0,-0.508 -0.1016,-0.8636 -0.3556,-1.1684 -0.127,-0.127 -0.3302,-0.2032 -0.5588,-0.2032 -0.4826,0 -0.7112,0.3556 -0.8128,0.6858 -0.0762,0.2032 -0.1016,0.4318 -0.1016,0.6858 v 10.9982 c 0,0.5334 0.127,0.889 0.381,1.1684 0.127,0.127 0.3048,0.2032 0.5334,0.2032 0.4826,0 0.7112,-0.3048 0.8128,-0.6858 0.0762,-0.1778 0.1016,-0.4064 0.1016,-0.6858 z" />
        <path
           d="m 99.487898,208.78913 -0.15782,-0.51179 2.970702,-8.86328 h -2.691405 l -1.498047,4.72266 -0.07617,0.22851 h -0.101562 l -0.07617,-0.22851 -1.5,-4.72266 h -2.691406 l 2.970703,8.86328 -0.154338,0.50083 z"
           id="path5191"
           inkscape:original-d="m 96.307351,218.08214 h -2.6924 l 3.0226,-9.8044 -2.9718,-8.8646 h 2.6924 l 1.4986,4.7244 0.0762,0.2286 h 0.1016 l 0.0762,-0.2286 1.4986,-4.7244 h 2.692399 l -2.971799,8.8646 3.022599,9.8044 h -2.692399 l -1.5748,-5.5626 -0.0508,-0.2286 h -0.1016 l -0.0508,0.2286 z" />
      </g>
      <g
         aria-label="THOUGHTS THOUGHTS THOUGHTS THOUGHTS"
         id="text2291"
         style="font-size:12.7px;line-height:0.8;font-family:'Bebas Neue';-inkscape-font-specification:'Bebas Neue, Normal';font-variant-ligatures:none;fill:#217867;stroke-width:0.264583"
         transform="matrix(0.35072979,0,0,0.35072979,4.7577632,132.70508)">
        <path
           d="m 206.361,114.982 v 1.66 l 1.275,-0.543 v 10.037 l 1.222,-0.448 v -10.109 l 1.276,-0.544 v -1.697 z"
           id="path4464"
           style="fill:#217867" />
        <path
           d="m 210.723,113.082 v 11.923 l 1.22,-0.447 v -5.404 l 1.311,-0.521 v 5.444 l 1.221,-0.447 v -12.183 l -1.221,0.531 v 4.927 l -1.311,0.534 v -4.889 z"
           id="path4466"
           style="fill:#217867" />
        <path
           d="m 217.15,110.104 c -0.599,0.262 -1.058,0.731 -1.376,1.408 -0.318,0.674 -0.478,1.499 -0.478,2.479 v 6.436 c 0,0.979 0.16,1.677 0.478,2.096 0.318,0.421 0.777,0.522 1.376,0.303 0.6,-0.219 1.058,-0.659 1.376,-1.322 0.318,-0.665 0.478,-1.497 0.478,-2.497 v -6.571 c 0,-1 -0.16,-1.704 -0.478,-2.114 -0.318,-0.407 -0.776,-0.48 -1.376,-0.218 z m 0,1.767 c 0.422,-0.18 0.633,0.136 0.633,0.951 v 6.775 c 0,0.816 -0.211,1.304 -0.633,1.463 -0.422,0.158 -0.633,-0.169 -0.633,-0.979 v -6.727 c 0,-0.81 0.211,-1.303 0.633,-1.483 z"
           id="path4468"
           style="fill:#217867" />
        <path
           d="m 219.781,109.135 v 9.575 c 0,1.016 0.155,1.741 0.466,2.177 0.311,0.425 0.762,0.529 1.354,0.312 0.592,-0.216 1.044,-0.653 1.355,-1.314 0.311,-0.676 0.466,-1.533 0.466,-2.57 v -9.767 l -1.178,0.513 v 9.851 c 0,0.436 -0.054,0.771 -0.165,1.007 -0.104,0.233 -0.256,0.386 -0.456,0.461 -0.2,0.075 -0.355,0.037 -0.466,-0.114 -0.104,-0.153 -0.156,-0.446 -0.156,-0.879 v -9.784 z"
           id="path4470"
           style="fill:#217867" />
        <path
           d="m 206.361,128.264 v 1.662 l 1.275,-0.442 v 10.037 l 1.222,-0.351 v -10.11 l 1.276,-0.442 v -1.7 z"
           id="path4480"
           style="fill:#217867" />
        <path
           d="m 210.723,126.708 v 11.926 l 1.22,-0.35 v -5.404 l 1.311,-0.418 v 5.445 l 1.221,-0.351 V 125.37 l -1.221,0.435 v 4.929 l -1.311,0.431 v -4.892 z"
           id="path4482"
           style="fill:#217867" />
        <path
           d="m 217.15,124.239 c -0.599,0.215 -1.058,0.65 -1.376,1.301 -0.318,0.65 -0.478,1.463 -0.478,2.442 v 6.436 c 0,0.979 0.16,1.689 0.478,2.134 0.318,0.446 0.777,0.584 1.376,0.412 0.6,-0.172 1.058,-0.575 1.376,-1.213 0.318,-0.64 0.478,-1.459 0.478,-2.459 v -6.571 c 0,-1 -0.16,-1.717 -0.478,-2.152 -0.318,-0.433 -0.776,-0.544 -1.376,-0.33 z m 0,1.77 c 0.422,-0.147 0.633,0.186 0.633,1.001 v 6.775 c 0,0.816 -0.211,1.288 -0.633,1.412 -0.422,0.125 -0.633,-0.218 -0.633,-1.028 v -6.727 c 0,-0.81 0.211,-1.287 0.633,-1.433 z"
           id="path4484"
           style="fill:#217867" />
        <path
           d="m 219.781,123.478 v 9.578 c 0,1.016 0.155,1.754 0.466,2.214 0.311,0.45 0.762,0.589 1.354,0.42 0.592,-0.17 1.044,-0.571 1.355,-1.208 0.311,-0.651 0.466,-1.496 0.466,-2.532 v -9.771 l -1.178,0.42 v 9.854 c 0,0.436 -0.054,0.767 -0.165,0.994 -0.104,0.224 -0.256,0.366 -0.456,0.425 -0.2,0.06 -0.355,0.009 -0.466,-0.151 -0.104,-0.161 -0.156,-0.458 -0.156,-0.892 v -9.786 z"
           id="path4486"
           style="fill:#217867" />
        <path
           d="m 206.361,141.547 v 1.663 l 1.275,-0.341 v 10.037 l 1.222,-0.255 v -10.109 l 1.276,-0.342 v -1.699 z"
           id="path4496"
           style="fill:#217867" />
        <path
           d="m 210.723,140.337 v 11.926 l 1.22,-0.254 v -5.403 l 1.311,-0.314 v 5.444 l 1.221,-0.254 v -12.186 l -1.221,0.339 v 4.929 l -1.311,0.326 v -4.891 z"
           id="path4498"
           style="fill:#217867" />
        <path
           d="m 217.15,138.377 c -0.599,0.167 -1.058,0.564 -1.376,1.19 -0.318,0.624 -0.478,1.427 -0.478,2.406 v 6.436 c 0,0.98 0.16,1.702 0.478,2.172 0.318,0.471 0.777,0.645 1.376,0.521 0.6,-0.124 1.058,-0.492 1.376,-1.104 0.318,-0.615 0.478,-1.422 0.478,-2.422 v -6.571 c 0,-1 -0.16,-1.732 -0.478,-2.192 -0.318,-0.458 -0.776,-0.603 -1.376,-0.436 z m 0,1.77 c 0.422,-0.114 0.633,0.236 0.633,1.051 v 6.775 c 0,0.816 -0.211,1.271 -0.633,1.362 -0.422,0.092 -0.633,-0.268 -0.633,-1.078 v -6.727 c 0,-0.81 0.211,-1.27 0.633,-1.383 z"
           id="path4500"
           style="fill:#217867" />
        <path
           d="m 219.781,137.824 v 9.578 c 0,1.016 0.155,1.766 0.466,2.251 0.311,0.474 0.762,0.649 1.354,0.527 0.592,-0.123 1.044,-0.488 1.355,-1.101 0.311,-0.626 0.466,-1.458 0.466,-2.495 v -9.77 l -1.178,0.327 v 9.853 c 0,0.436 -0.054,0.763 -0.165,0.981 -0.104,0.216 -0.256,0.346 -0.456,0.389 -0.2,0.044 -0.355,-0.019 -0.466,-0.187 -0.104,-0.17 -0.156,-0.472 -0.156,-0.905 v -9.787 z"
           id="path4502"
           style="fill:#217867" />
        <path
           d="m 206.361,154.831 v 1.663 l 1.275,-0.241 v 10.038 l 1.222,-0.158 v -10.11 l 1.276,-0.24 v -1.7 z"
           id="path4512"
           style="fill:#217867" />
        <path
           d="m 210.723,153.966 v 11.926 l 1.22,-0.157 v -5.404 l 1.311,-0.21 v 5.445 l 1.221,-0.158 v -12.186 l -1.221,0.242 v 4.929 l -1.311,0.223 v -4.892 z"
           id="path4514"
           style="fill:#217867" />
        <path
           d="m 217.15,152.515 c -0.599,0.12 -1.058,0.48 -1.376,1.081 -0.318,0.598 -0.478,1.389 -0.478,2.368 v 6.436 c 0,0.98 0.16,1.715 0.478,2.21 0.318,0.496 0.777,0.707 1.376,0.63 0.6,-0.077 1.058,-0.408 1.376,-0.995 0.318,-0.59 0.478,-1.384 0.478,-2.384 v -6.571 c 0,-1 -0.16,-1.745 -0.478,-2.23 -0.318,-0.483 -0.776,-0.664 -1.376,-0.545 z m 0,1.769 c 0.422,-0.079 0.633,0.287 0.633,1.102 v 6.775 c 0,0.816 -0.211,1.254 -0.633,1.312 -0.422,0.058 -0.633,-0.318 -0.633,-1.128 v -6.727 c 0,-0.81 0.211,-1.254 0.633,-1.334 z"
           id="path4516"
           style="fill:#217867" />
        <path
           d="m 219.781,152.17 v 9.578 c 0,1.016 0.155,1.776 0.466,2.285 0.311,0.499 0.762,0.713 1.354,0.637 0.592,-0.076 1.044,-0.408 1.355,-0.996 0.311,-0.602 0.466,-1.419 0.466,-2.456 v -9.77 l -1.178,0.234 v 9.853 c 0,0.436 -0.054,0.759 -0.165,0.968 -0.104,0.208 -0.256,0.326 -0.456,0.353 -0.2,0.028 -0.355,-0.047 -0.466,-0.224 -0.104,-0.179 -0.156,-0.484 -0.156,-0.917 v -9.787 z"
           id="path4518"
           style="fill:#217867" />
      </g>
      <g
         id="g4595"
         style="font-size:12.7px;line-height:0.8;font-family:'Bebas Neue';-inkscape-font-specification:'Bebas Neue, Normal';font-variant-ligatures:none;display:inline;fill:#2ca089;stroke-width:0.264583"
         transform="matrix(0,0.35072979,0.35072979,0,37.113743,129.93609)">
        <path
           id="path4531"
           d=""
           style="fill:#2ca089" />
        <path
           id="path4533"
           d=""
           style="fill:#2ca089" />
        <path
           id="path4535"
           d=""
           style="fill:#2ca089" />
        <path
           id="path4537"
           d=""
           style="fill:#2ca089" />
        <path
           id="path4539"
           d="m 116.361,135.374 c -0.358,-1.368 -0.352,-2.41 0.019,-3.128 0.362,-0.718 1.062,-1.077 2.098,-1.077 h 6.732 c 1.037,0 1.916,0.359 2.636,1.077 0.705,0.718 1.204,1.76 1.504,3.128 0.3,1.367 0.262,2.413 -0.115,3.131 -0.387,0.719 -1.084,1.077 -2.093,1.077 h -4.074 l -0.992,-4.078 h 1.803 l 0.334,1.408 h 2.46 c 0.813,0 1.111,-0.485 0.891,-1.46 -0.219,-0.974 -0.739,-1.463 -1.561,-1.463 h -6.944 c -0.834,0 -1.123,0.489 -0.874,1.463 0.249,0.975 0.785,1.46 1.61,1.46 h 1.204 l 0.662,2.67 h -1.067 c -1.008,0 -1.871,-0.358 -2.591,-1.077 -0.736,-0.718 -1.284,-1.764 -1.642,-3.131 z"
           style="fill:#2ca089" />
        <path
           id="path4541"
           d="m 118.116,141.401 h 12.378 l 0.621,2.824 h -5.517 l 0.721,3.025 h 5.461 l 0.62,2.82 h -12.018 l -0.737,-2.82 h 4.941 l -0.739,-3.025 h -4.993 z"
           style="fill:#2ca089" />
        <path
           id="path4543"
           d="m 120.738,151.431 h 1.708 l 0.753,2.95 h 10.148 l 0.62,2.821 H 123.92 l 0.753,2.95 h -1.657 z"
           style="fill:#2ca089" />
        <path
           id="path4545"
           d="m 124.194,165.28 c -0.359,-1.368 -0.38,-2.41 -0.063,-3.128 0.309,-0.718 0.921,-1.077 1.835,-1.077 0.671,0 1.333,0.229 1.985,0.69 0.64,0.462 1.427,1.275 2.361,2.438 0.73,0.923 1.319,1.555 1.767,1.897 0.436,0.342 0.892,0.513 1.367,0.513 0.4,0 0.662,-0.126 0.788,-0.383 0.119,-0.239 0.124,-0.598 0.017,-1.076 -0.22,-0.975 -0.7,-1.464 -1.442,-1.464 h -0.785 l -0.619,-2.666 h 0.661 c 0.936,0 1.736,0.348 2.397,1.049 0.648,0.701 1.12,1.736 1.42,3.104 0.303,1.385 0.287,2.438 -0.048,3.156 -0.329,0.735 -0.952,1.1 -1.87,1.1 -0.705,0 -1.372,-0.222 -2.001,-0.666 -0.631,-0.445 -1.411,-1.254 -2.343,-2.434 -0.734,-0.923 -1.325,-1.566 -1.773,-1.925 -0.444,-0.342 -0.874,-0.513 -1.289,-0.513 -0.73,0 -0.973,0.472 -0.732,1.412 0.118,0.462 0.298,0.81 0.543,1.05 0.233,0.239 0.544,0.358 0.932,0.358 h 0.585 l 0.666,2.667 h -0.466 c -0.908,0 -1.691,-0.348 -2.354,-1.049 -0.672,-0.684 -1.186,-1.702 -1.539,-3.053 z"
           style="fill:#2ca089" />
        <path
           id="path4547"
           d=""
           style="fill:#2ca089" />
        <path
           id="path4549"
           d=""
           style="fill:#2ca089" />
        <path
           id="path4551"
           d=""
           style="fill:#2ca089" />
        <path
           id="path4553"
           d=""
           style="fill:#2ca089" />
        <path
           id="path4555"
           d="m 130.793,135.374 c -0.293,-1.368 -0.235,-2.41 0.17,-3.128 0.396,-0.718 1.113,-1.077 2.15,-1.077 h 6.732 c 1.036,0 1.899,0.359 2.584,1.077 0.671,0.718 1.121,1.76 1.356,3.128 0.235,1.367 0.148,2.413 -0.264,3.131 -0.421,0.719 -1.136,1.077 -2.144,1.077 h -4.074 l -0.799,-4.078 h 1.803 l 0.267,1.408 h 2.46 c 0.814,0 1.134,-0.485 0.961,-1.46 -0.173,-0.974 -0.67,-1.463 -1.492,-1.463 h -6.943 c -0.834,0 -1.147,0.489 -0.944,1.463 0.203,0.975 0.715,1.46 1.541,1.46 h 1.204 l 0.535,2.67 h -1.067 c -1.008,0 -1.854,-0.358 -2.54,-1.077 -0.701,-0.718 -1.203,-1.764 -1.496,-3.131 z"
           style="fill:#2ca089" />
        <path
           id="path4557"
           d="m 132.262,141.401 h 12.381 l 0.487,2.824 h -5.518 l 0.578,3.025 h 5.461 l 0.486,2.82 h -12.021 l -0.603,-2.82 h 4.944 l -0.596,-3.025 h -4.995 z"
           style="fill:#2ca089" />
        <path
           id="path4559"
           d="m 134.407,151.431 h 1.711 l 0.614,2.95 h 10.148 l 0.486,2.821 h -10.048 l 0.614,2.95 h -1.66 z"
           style="fill:#2ca089" />
        <path
           id="path4561"
           d="m 137.206,165.28 c -0.293,-1.368 -0.263,-2.41 0.089,-3.128 0.343,-0.718 0.971,-1.077 1.885,-1.077 0.672,0 1.323,0.229 1.953,0.69 0.618,0.462 1.367,1.275 2.245,2.438 0.687,0.923 1.245,1.555 1.677,1.897 0.42,0.342 0.868,0.513 1.343,0.513 0.4,0 0.668,-0.126 0.806,-0.383 0.13,-0.239 0.153,-0.598 0.068,-1.076 -0.173,-0.975 -0.631,-1.464 -1.372,-1.464 h -0.786 l -0.492,-2.666 h 0.661 c 0.936,0 1.719,0.348 2.348,1.049 0.614,0.701 1.037,1.736 1.272,3.104 0.238,1.385 0.171,2.438 -0.198,3.156 -0.364,0.735 -1.004,1.1 -1.922,1.1 -0.705,0 -1.361,-0.222 -1.969,-0.666 -0.61,-0.445 -1.351,-1.254 -2.228,-2.434 -0.69,-0.923 -1.251,-1.566 -1.681,-1.925 -0.428,-0.342 -0.85,-0.513 -1.265,-0.513 -0.73,0 -0.995,0.472 -0.799,1.412 0.096,0.462 0.259,0.81 0.493,1.05 0.222,0.239 0.527,0.358 0.915,0.358 h 0.583 l 0.539,2.667 h -0.463 c -0.908,0 -1.675,-0.348 -2.305,-1.049 -0.639,-0.684 -1.107,-1.702 -1.397,-3.053 z"
           style="fill:#2ca089" />
        <path
           id="path4563"
           d=""
           style="fill:#2ca089" />
        <path
           id="path4565"
           d=""
           style="fill:#2ca089" />
        <path
           id="path4567"
           d=""
           style="fill:#2ca089" />
        <path
           id="path4569"
           d=""
           style="fill:#2ca089" />
        <path
           id="path4571"
           d="m 145.228,135.374 c -0.229,-1.368 -0.124,-2.41 0.316,-3.128 0.43,-0.718 1.166,-1.077 2.203,-1.077 h 6.732 c 1.037,0 1.882,0.359 2.533,1.077 0.637,0.718 1.038,1.76 1.208,3.128 0.17,1.367 0.033,2.413 -0.413,3.131 -0.455,0.719 -1.187,1.077 -2.195,1.077 h -4.074 l -0.605,-4.078 h 1.803 l 0.2,1.408 h 2.46 c 0.814,0 1.157,-0.485 1.03,-1.46 -0.127,-0.974 -0.601,-1.463 -1.422,-1.463 h -6.944 c -0.834,0 -1.17,0.489 -1.013,1.463 0.157,0.975 0.646,1.46 1.472,1.46 h 1.204 l 0.408,2.67 h -1.067 c -1.008,0 -1.84,-0.358 -2.492,-1.077 -0.667,-0.718 -1.116,-1.764 -1.344,-3.131 z"
           style="fill:#2ca089" />
        <path
           id="path4573"
           d="m 146.411,141.401 h 12.381 l 0.352,2.824 h -5.517 l 0.434,3.025 h 5.461 l 0.352,2.82 h -12.02 l -0.47,-2.82 h 4.944 l -0.452,-3.025 h -4.995 z"
           style="fill:#2ca089" />
        <path
           id="path4575"
           d="m 148.08,151.431 h 1.711 l 0.473,2.95 h 10.148 l 0.353,2.821 h -10.048 l 0.473,2.95 h -1.659 z"
           style="fill:#2ca089" />
        <path
           id="path4577"
           d="m 150.222,165.28 c -0.229,-1.368 -0.151,-2.41 0.234,-3.128 0.377,-0.718 1.025,-1.077 1.939,-1.077 0.672,0 1.312,0.229 1.92,0.69 0.596,0.462 1.306,1.275 2.129,2.438 0.643,0.923 1.172,1.555 1.588,1.897 0.403,0.342 0.843,0.513 1.318,0.513 0.399,0 0.674,-0.126 0.824,-0.383 0.142,-0.239 0.181,-0.598 0.119,-1.076 -0.127,-0.975 -0.561,-1.464 -1.303,-1.464 h -0.785 l -0.365,-2.666 h 0.66 c 0.936,0 1.703,0.348 2.298,1.049 0.582,0.701 0.955,1.736 1.125,3.104 0.172,1.385 0.056,2.438 -0.348,3.156 -0.398,0.735 -1.056,1.1 -1.974,1.1 -0.705,0 -1.351,-0.222 -1.938,-0.666 -0.588,-0.445 -1.291,-1.254 -2.111,-2.434 -0.647,-0.923 -1.177,-1.566 -1.591,-1.925 -0.411,-0.342 -0.826,-0.513 -1.24,-0.513 -0.73,0 -1.018,0.472 -0.866,1.412 0.074,0.462 0.221,0.81 0.443,1.05 0.211,0.239 0.51,0.358 0.899,0.358 h 0.582 l 0.413,2.667 h -0.464 c -0.908,0 -1.66,-0.348 -2.257,-1.049 -0.607,-0.684 -1.024,-1.702 -1.249,-3.053 z"
           style="fill:#2ca089" />
        <path
           id="path4579"
           d=""
           style="fill:#2ca089" />
        <path
           id="path4581"
           d=""
           style="fill:#2ca089" />
        <path
           id="path4583"
           d=""
           style="fill:#2ca089" />
        <path
           id="path4585"
           d=""
           style="fill:#2ca089" />
        <path
           id="path4587"
           d="m 159.663,135.374 c -0.164,-1.368 -0.01,-2.41 0.464,-3.128 0.464,-0.718 1.218,-1.077 2.254,-1.077 h 6.732 c 1.037,0 1.863,0.359 2.48,1.077 0.603,0.718 0.956,1.76 1.061,3.128 0.106,1.367 -0.084,2.413 -0.564,3.131 -0.489,0.719 -1.235,1.077 -2.243,1.077 h -4.074 l -0.412,-4.078 h 1.803 l 0.134,1.408 h 2.46 c 0.814,0 1.18,-0.485 1.099,-1.46 -0.08,-0.974 -0.531,-1.463 -1.353,-1.463 h -6.943 c -0.834,0 -1.194,0.489 -1.083,1.463 0.111,0.975 0.577,1.46 1.403,1.46 h 1.203 l 0.282,2.67 h -1.067 c -1.008,0 -1.823,-0.358 -2.441,-1.077 -0.633,-0.718 -1.032,-1.764 -1.195,-3.131 z"
           style="fill:#2ca089" />
        <path
           id="path4589"
           d="m 160.56,141.401 h 12.38 l 0.219,2.824 h -5.517 l 0.29,3.025 h 5.461 l 0.218,2.82 h -12.02 l -0.336,-2.82 h 4.944 l -0.309,-3.025 h -4.994 z"
           style="fill:#2ca089" />
        <path
           id="path4591"
           d="m 161.753,151.431 h 1.711 l 0.333,2.95 h 10.148 l 0.218,2.821 h -10.048 l 0.334,2.95 h -1.659 z"
           style="fill:#2ca089" />
        <path
           id="path4593"
           d="m 163.237,165.28 c -0.164,-1.368 -0.037,-2.41 0.383,-3.128 0.411,-0.718 1.076,-1.077 1.99,-1.077 0.672,0 1.3,0.229 1.887,0.69 0.574,0.462 1.246,1.275 2.014,2.438 0.598,0.923 1.097,1.555 1.497,1.897 0.387,0.342 0.819,0.513 1.294,0.513 0.399,0 0.68,-0.126 0.842,-0.383 0.153,-0.239 0.21,-0.598 0.17,-1.076 -0.08,-0.975 -0.491,-1.464 -1.233,-1.464 h -0.785 l -0.239,-2.666 h 0.66 c 0.937,0 1.684,0.348 2.246,1.049 0.548,0.701 0.875,1.736 0.98,3.104 0.106,1.385 -0.06,2.438 -0.497,3.156 -0.434,0.735 -1.109,1.1 -2.027,1.1 -0.705,0 -1.34,-0.222 -1.906,-0.666 -0.567,-0.445 -1.232,-1.254 -1.996,-2.434 -0.603,-0.923 -1.103,-1.566 -1.499,-1.925 -0.396,-0.342 -0.802,-0.513 -1.216,-0.513 -0.73,0 -1.04,0.472 -0.933,1.412 0.052,0.462 0.182,0.81 0.393,1.05 0.2,0.239 0.493,0.358 0.882,0.358 h 0.582 l 0.286,2.667 h -0.463 c -0.908,0 -1.644,-0.348 -2.208,-1.049 -0.574,-0.684 -0.943,-1.702 -1.104,-3.053 z"
           style="fill:#2ca089" />
      </g>
      <g
         id="g5202"
         style="font-size:25.4px;line-height:0.8;font-family:'League Gothic';-inkscape-font-specification:'League Gothic, Normal';font-variant-ligatures:none;display:inline;fill:#134238;stroke-width:0.264583"
         class="UnoptimicedTransforms"
         transform="translate(0,1.1036603)">
        <path
           id="path5196"
           d="m 76.191406,208.70413 v 9.3779 h 3.376953 c 1.6256,-0.0762 2.718516,-0.71058 3.353516,-1.67578 0.635,-0.9652 0.888672,-2.21042 0.888672,-3.60742 0,-0.9398 -0.101488,-1.70096 -0.304688,-2.28516 -0.270117,-0.79347 -0.584856,-1.37423 -0.96694,-1.78638 z m 2.742188,0.91892 c 0.2286,0 0.76155,-0.049 1.21875,0.28125 0.4572,0.3302 0.814453,1.06584 0.814453,2.58984 0,1.524 -0.357253,2.25964 -0.814453,2.58984 -0.4572,0.3302 -0.99015,0.28125 -1.21875,0.28125 z" />
        <path
           id="path5198"
           d="m 85.257812,208.73721 v 5.50888 c 0.0254,0.762 0.177632,1.44901 0.457032,2.03321 0.2286,0.508 0.56036,0.99009 1.068359,1.37109 0.508,0.4064 1.218413,0.63477 2.132813,0.63477 0.9144,0 1.599422,-0.22837 2.107422,-0.63477 0.507999,-0.381 0.865149,-0.86309 1.09375,-1.37109 0.279399,-0.5842 0.431631,-1.27121 0.457031,-2.03321 v -5.48218 z m 4.572266,0.0167 v 5.4922 c 0,0.2794 -0.02536,0.50775 -0.101562,0.68555 -0.1016,0.381 -0.3299,0.6875 -0.8125,0.6875 -0.2286,0 -0.406204,-0.0761 -0.533204,-0.20312 -0.254,-0.2794 -0.380859,-0.63653 -0.380859,-1.16993 v -5.49887 z" />
        <path
           id="path5200"
           d="m 96.482381,208.77817 -2.867147,9.30386 h 2.691407 l 1.576171,-5.5625 0.05078,-0.22851 h 0.101562 l 0.05078,0.22851 1.574218,5.5625 h 2.693364 l -2.865622,-9.2929 z" />
      </g>
    </g>
  </g>
</svg>
